PathFileType	4	(X/Y/Z)	C:/Users/beibeiliu/ov580/test_trc/User2\sequence.1_training_dense_right.trc
DataRate	CameraRate	NumFrames	NumMarkers	Units	OrigDataRate	OrigDataStartFrame	OrigNumFrames
120	120	12	19	mm	120	51	200
Frame#	Time	ThumbCMC			ThumbMCP			ThumbIP			ThumbTip			IndexMCP			IndexPIP			IndexTip			MiddleMCP			MiddlePIP			MiddleTip			RingMCP			RingPIP			RingTip			PinkyMCP			PinkyPIP			PinkyTip			BackHand1			BackHand2			BackHand3	
		X0	Y0	Z0	X1	Y1	Z1	X2	Y2	Z2	X3	Y3	Z3	X4	Y4	Z4	X5	Y5	Z5	X6	Y6	Z6	X7	Y7	Z7	X8	Y8	Z8	X9	Y9	Z9	X10	Y10	Z10	X11	Y11	Z11	X12	Y12	Z12	X13	Y13	Z13	X14	Y14	Z14	X15	Y15	Z15	X16	Y16	Z16	X17	Y17	Z17	X18	Y18	Z18	
50	0.416667	29.1414	45.0436	35.0301	4.1988	48.7239	17.5883	-13.1035	50.8162	-8.8245	-25.0562	51.0502	-33.7904	48.1308	72.4972	-43.2429	44.0455	76.5632	-70.5405	43.4159	77.9922	-97.0764	78.3126	72.4781	-49.8175	80.178	77.4162	-76.4378	89.8439	83.3599	-106.651	105.944	57.8122	-41.2649	110.475	63.5953	-64.1888	119.908	72.5993	-93.0921	119.684	37.4385	-26.9496	130.752	42.9908	-49.2961	146.826	47.0587	-66.0633	97.1951	51.8749	10.4068	98.5539	50.0203	43.4247	67.1744	60.0979	30.6376	
51	0.425	22.5965	39.0277	40.1551	0.902968	42.5737	16.4071	-16.8819	40.7777	-8.91723	-29.7777	39.6221	-32.5347	42.6768	63.7539	-40.8758	37.8447	65.0753	-68.1033	31.6864	67.588	-97.4214	70.99	64.0997	-45.7018	71.8557	69.2176	-76.1935	74.598	76.7883	-109.472	99.0077	51.9616	-40.2972	100.673	59.8017	-68.7023	110.058	65.9968	-94.3758	113.607	35.165	-27.5929	126.018	36.2063	-46.3923	138.195	47.7542	-68.9348	91.716	48.8208	11.2086	96.1181	46.2612	45.3334	58.7883	58.7908	30.5647	
52	0.433333	19.2095	38.5059	40.1766	-5.60984	37.9585	19.878	-21.1555	35.4669	-8.84046	-36.4961	32.2515	-27.8021	36.5651	58.1572	-44.7693	28.0262	59.9308	-71.0028	28.6208	57.9869	-101.137	66.7607	59.4401	-49.5249	63.5863	61.5518	-77.7795	70.4087	64.5474	-110.03	90.3582	48.2556	-44.0203	95.039	50.7554	-68.2605	101.985	56.4307	-96.6926	107.19	30.788	-26.0632	118.042	33.4365	-49.2208	128.922	40.4831	-69.2641	89.7102	45.9416	13.0245	87.7107	45.1892	48.3414	56.4702	54.9038	30.1439	
53	0.441667	17.711	38.6152	42.3943	-9.26265	38.1467	23.7997	-26.6796	33.5302	-2.45037	-40.8172	29.8187	-27.8964	33.1787	54.4606	-40.691	28.4404	53.4055	-67.1354	25.3061	49.8514	-95.6824	59.9311	53.9845	-48.0918	61.9653	53.8281	-82.3093	65.589	53.0032	-110.044	88.8444	41.6987	-45.4861	91.9845	41.8055	-68.2222	92.1931	45.9175	-99.4262	105.498	24.7498	-24.8921	116.026	23.6454	-47.5093	121.713	31.1595	-69.8511	86.8617	44.6261	15.5763	86.7983	46.1622	46.8918	51.8051	57.4224	30.2558	
54	0.45	20.457	39.6437	43.0364	-5.33838	39.0361	26.3588	-27.3476	36.7081	-2.6483	-41.0988	30.4337	-20.101	32.7537	52.5277	-44.8044	24.3581	50.7967	-71.6542	21.4516	46.1228	-95.508	59.8894	49.2706	-51.0448	59.2316	46.1356	-83.7105	58.5368	43.3976	-110.034	83.7493	35.9091	-46.7656	90.4693	32.6624	-69.183	90.3839	33.174	-96.9469	103.501	20.2321	-29.3271	111.258	16.3725	-52.5969	121.802	18.716	-76.6181	83.6284	42.6722	11.7312	88.8381	44.7896	46.3998	52.8155	58.2626	27.1717	
55	0.458333	23.3283	44.3725	42.3846	-2.92519	46.1053	23.7204	-26.2459	43.0669	1.73555	-39.9384	37.1774	-21.7499	32.0183	53.0546	-43.049	26.9124	48.9155	-69.9568	21.663	43.7854	-94.3504	61.3693	46.0834	-50.7511	58.8297	40.8194	-81.4853	59.1872	33.6345	-114.143	86.4899	30.3632	-43.7927	84.335	27.7535	-73.3244	90.7782	22.6365	-99.4755	100.87	15.1999	-27.2294	110.657	7.48974	-52.7495	114.022	8.50503	-76.1156	87.6211	42.2388	10.6536	90.7657	44.1261	45.8648	53.9216	59.7617	27.4639	
56	0.466667	28.1072	54.0407	42.605	0.246032	57.6916	25.7631	-20.9485	57.2814	0.936628	-38.0875	53.5653	-17.7855	36.7754	54.5895	-44.0296	26.4763	51.8596	-66.5817	19.1952	44.572	-95.4738	62.5208	43.8216	-50.739	59.5267	35.0274	-79.3851	54.3737	26.3788	-110.689	81.9134	26.91	-44.5318	85.473	17.8877	-71.5336	84.8621	10.4629	-97.6719	96.7011	9.86639	-29.0551	104.808	-2.39713	-51.5064	109.123	-9.84457	-75.7598	90.8865	38.4935	12.0669	95.3733	44.5022	43.328	63.1927	60.9189	25.9775	
57	0.475	35.2079	66.8046	44.3254	8.30436	76.9423	25.025	-16.3727	80.1361	0.252562	-29.8847	75.9908	-13.3637	38.4781	61.5047	-41.7481	29.132	55.9336	-68.1513	18.0961	46.0555	-94.2084	62.6305	40.395	-51.26	53.5503	32.5482	-81.7499	47.5038	20.5846	-107.894	79.6122	19.613	-43.9953	76.0328	11.1984	-68.9203	69.3368	4.14091	-97.443	92.7697	0.558334	-29.5058	89.7835	-9.00321	-50.9926	92.5872	-20.8265	-77.2278	90.2359	39.2395	10.8349	99.3143	41.9878	38.8144	71.1975	64.3327	24.639	
58	0.483333	45.0936	78.2014	40.9668	20.5009	93.1003	28.4127	-3.10265	102.343	5.60623	-20.0289	99.8004	-13.8551	42.0362	63.9056	-41.8487	26.4592	62.6359	-68.0852	13.2784	53.6289	-90.0549	58.6478	40.1319	-49.0343	46.4246	27.8565	-79.8588	32.3097	20.5775	-107.002	68.6207	19.0656	-44.1405	62.2979	3.08675	-67.3728	53.1862	-3.3817	-91.0984	79.5791	-4.77389	-25.6747	73.858	-18.2736	-47.0618	72.3888	-30.2241	-69.1477	90.4172	32.6068	11.4012	102.215	38.8102	42.3991	78.387	66.8817	24.7286	
59	0.491667	54.9715	84.1516	40.7161	34.0447	107.245	26.8473	12.3468	112.379	0.973205	-5.7238	118.469	-12.7086	42.5713	70.6012	-41.8217	27.9433	65.2189	-65.2655	11.5929	56.1335	-88.3421	52.0804	39.6003	-51.3171	36.8081	30.761	-76.8486	21.5979	21.9664	-99.371	60.7928	14.0187	-42.7511	49.3377	2.25382	-64.1067	35.4346	-7.14377	-85.8187	66.4706	-6.93929	-20.8873	56.1221	-21.726	-40.1322	46.9206	-31.1512	-60.8183	85.5474	30.6333	6.32882	101.986	35.0774	40.0819	84.9363	65.5964	22.8678	
60	0.5	66.0059	91.1013	41.2104	49.8327	109.278	23.3907	29.839	126.111	0.31555	11.8543	135.836	-16.0883	45.1402	70.1156	-45.3286	25.4502	71.2525	-67.5693	6.5984	67.2434	-88.0082	49.3021	43.5309	-47.8399	28.4484	38.7319	-72.1981	5.57768	25.4556	-98.1232	48.6282	13.142	-42.9094	33.6056	5.42026	-59.916	15.0545	-2.35516	-82.1831	51.195	-7.52548	-17.4025	34.3939	-16.3077	-39.672	25.0628	-30.721	-53.41	83.4077	25.6525	7.01428	99.8379	28.8803	37.1334	88.1545	62.6309	17.047	
61	0.508333	73.8244	90.0746	34.6828	62.9119	116.205	22.1563	44.376	133.23	-3.71947	28.4314	139.05	-18.9386	48.8617	73.9005	-42.4188	27.4887	72.5839	-67.0986	7.79648	76.0844	-83.8088	44.2567	41.4857	-46.3227	21.0716	43.4669	-72.8941	-2.9662	39.4082	-92.8938	39.4898	20.2435	-40.7057	23.1402	14.2134	-57.3676	1.59496	8.53368	-77.5802	36.5954	-1.83627	-20.2532	19.5345	-11.1483	-32.0124	2.8623	-20.7768	-54.662	75.7316	22.6811	5.97729	94.6231	23.425	34.8775	89.9376	61.371	16.1335	
